<svg width="1920" height="1080" viewBox="0 0 1920 1080" xmlns="http://www.w3.org/2000/svg"><rect width="1920" height="1080" fill="#1f1f38"/><path d="M 0,1080 C 0,1080 0,216 0,216 C 374.82142857142856,174.5 749.6428571428571,133 850,144 C 950.3571428571429,155 776.2499999999999,218.5 791,238 C 805.7500000000001,257.5 1009.3571428571429,233.00000000000003 1229,222 C 1448.642857142857,210.99999999999997 1684.3214285714284,213.5 1920,216 C 1920,216 1920,1080 1920,1080 Z" fill="#2c2c6c" opacity="0.12"/><path d="M 0,1080 C 0,1080 0,432 0,432 C 132.75,395.0357142857143 265.5,358.07142857142856 287,356 C 308.5,353.92857142857144 218.74999999999994,386.75000000000006 365,398 C 511.25000000000006,409.24999999999994 893.5000000000002,398.92857142857144 1192,401 C 1490.4999999999998,403.07142857142856 1705.25,417.5357142857143 1920,432 C 1920,432 1920,1080 1920,1080 Z" fill="#2c2c6c" opacity="0.24"/><path d="M 0,1080 C 0,1080 0,648 0,648 C 496.46428571428567,686.9285714285714 992.9285714285713,725.8571428571429 1220,706 C 1447.0714285714287,686.1428571428571 1404.7500000000002,607.5 1472,601 C 1539.2499999999998,594.5 1716.0714285714284,660.1428571428572 1809,680 C 1901.9285714285716,699.8571428571428 1910.9642857142858,673.9285714285713 1920,648 C 1920,648 1920,1080 1920,1080 Z" fill="#2c2c6c" opacity="0.36"/><path d="M 0,1080 C 0,1080 0,864 0,864 C -130.64285714285717,835.0357142857142 -261.28571428571433,806.0714285714286 161,801 C 583.2857142857143,795.9285714285714 1558.5,814.75 1726,845 C 1893.5,875.25 1253.2857142857142,916.9285714285714 1151,922 C 1048.7142857142858,927.0714285714286 1484.357142857143,895.5357142857142 1920,864 C 1920,864 1920,1080 1920,1080 Z" fill="#2c2c6c" opacity="0.48"/></svg>