<svg width="1920" height="1080" viewBox="0 0 1920 1080" xmlns="http://www.w3.org/2000/svg"><rect width="1920" height="1080" fill="#2c2c6c"/><path d="M 0,1080 C 0,1080 0,216 0,216 C 261.35714285714283,175.39285714285714 522.7142857142857,134.78571428571428 658,149 C 793.2857142857143,163.21428571428572 802.5000000000001,232.25 881,261 C 959.4999999999999,289.75 1107.2857142857142,278.2142857142857 1292,264 C 1476.7142857142858,249.78571428571428 1698.357142857143,232.89285714285714 1920,216 C 1920,216 1920,1080 1920,1080 Z" fill="#000000" opacity="0.12"/><path d="M 0,1080 C 0,1080 0,432 0,432 C 135.71428571428572,439.0357142857143 271.42857142857144,446.07142857142856 490,431 C 708.5714285714286,415.92857142857144 1010.0000000000002,378.74999999999994 1174,362 C 1337.9999999999998,345.25000000000006 1364.5714285714287,348.92857142857144 1466,364 C 1567.4285714285713,379.07142857142856 1743.7142857142858,405.5357142857143 1920,432 C 1920,432 1920,1080 1920,1080 Z" fill="#000000" opacity="0.24"/><path d="M 0,1080 C 0,1080 0,648 0,648 C 56.428571428571416,687 112.85714285714283,726 223,708 C 333.14285714285717,690 497,615 720,604 C 943,593 1225.1428571428573,646.0000000000001 1435,664 C 1644.8571428571427,681.9999999999999 1782.4285714285713,665 1920,648 C 1920,648 1920,1080 1920,1080 Z" fill="#000000" opacity="0.36"/><path d="M 0,1080 C 0,1080 0,864 0,864 C 12.071428571428612,882.4642857142858 24.142857142857224,900.9285714285714 282,906 C 539.8571428571428,911.0714285714286 1043.4999999999998,902.75 1226,895 C 1408.5000000000002,887.25 1269.8571428571431,880.0714285714284 1332,875 C 1394.1428571428569,869.9285714285716 1657.0714285714284,866.9642857142858 1920,864 C 1920,864 1920,1080 1920,1080 Z" fill="#000000" opacity="0.48"/></svg>